<svg width="1600" height="900" viewBox="0 0 1600 900" fill="none" xmlns="http://www.w3.org/2000/svg">
  <rect width="1600" height="900" fill="#F5E9D5"/>
  <rect x="0" y="0" width="1600" height="160" fill="#C7DDEA"/>
  <rect x="72" y="96" width="1456" height="708" rx="28" fill="#FFF8EE" stroke="#162635" stroke-width="12"/>
  <path d="M246 420L214 676H318L285 420" fill="#BD7A31"/>
  <g transform="rotate(-6 260 310)">
    <rect x="120" y="152" width="280" height="208" rx="24" fill="#FFF8EE" stroke="#162635" stroke-width="16"/>
    <path d="M173 299L204 233L239 268L270 205L306 253L339 192L351 299H173Z" stroke="#162635" stroke-width="16" stroke-linecap="round" stroke-linejoin="round"/>
    <path d="M162 330L337 191" stroke="#D45736" stroke-width="24" stroke-linecap="round"/>
  </g>
  <text x="458" y="278" fill="#D45736" font-family="Arial Narrow, Franklin Gothic Medium, sans-serif" font-size="42" font-weight="700" letter-spacing="7">PEOPLE POWER, POSTER BRIGHT</text>
  <text x="458" y="408" fill="#162635" font-family="Arial Black, Impact, sans-serif" font-size="116" font-weight="900" letter-spacing="2">BEST NO KINGS</text>
  <text x="458" y="530" fill="#162635" font-family="Arial Black, Impact, sans-serif" font-size="116" font-weight="900" letter-spacing="2">PROTEST SIGNS</text>
  <text x="458" y="624" fill="#31516B" font-family="Courier New, monospace" font-size="40" font-weight="700" letter-spacing="5">BESTNOKINGSPROTESTSIGNS.ORG</text>
  <path d="M459 675H1325" stroke="#162635" stroke-width="8" stroke-linecap="round"/>
  <text x="458" y="740" fill="#31516B" font-family="Palatino Linotype, Georgia, serif" font-size="46">Original no-kings sign ideas for marches, rallies, and printable share-outs.</text>
</svg>
